<svg width="62" height="24" viewBox="0 0 62 24" fill="none" xmlns="http://www.w3.org/2000/svg">
<rect width="62" height="24" rx="6" fill="#FEF5ED"/>
<path d="M10.46 16C10.356 16 10.272 15.972 10.208 15.916C10.152 15.86 10.112 15.78 10.088 15.676L8.54 7.972C8.532 7.94 8.528 7.912 8.528 7.888C8.528 7.864 8.528 7.848 8.528 7.84C8.528 7.776 8.552 7.72 8.6 7.672C8.648 7.624 8.704 7.6 8.768 7.6H9.392C9.56 7.6 9.656 7.668 9.68 7.804L10.904 13.996L12.2 9.748C12.224 9.676 12.264 9.612 12.32 9.556C12.384 9.492 12.472 9.46 12.584 9.46H13.028C13.148 9.46 13.236 9.492 13.292 9.556C13.348 9.612 13.384 9.676 13.4 9.748L14.708 13.996L15.92 7.804C15.944 7.668 16.044 7.6 16.22 7.6H16.844C16.908 7.6 16.964 7.624 17.012 7.672C17.06 7.72 17.084 7.776 17.084 7.84C17.084 7.848 17.08 7.864 17.072 7.888C17.072 7.912 17.072 7.94 17.072 7.972L15.524 15.676C15.5 15.78 15.456 15.86 15.392 15.916C15.336 15.972 15.256 16 15.152 16H14.684C14.572 16 14.484 15.972 14.42 15.916C14.356 15.86 14.312 15.788 14.288 15.7L12.8 11.128L11.324 15.7C11.292 15.788 11.244 15.86 11.18 15.916C11.124 15.972 11.04 16 10.928 16H10.46ZM20.7956 16.12C20.1876 16.12 19.6796 16.004 19.2716 15.772C18.8636 15.54 18.5516 15.22 18.3356 14.812C18.1196 14.396 17.9996 13.924 17.9756 13.396C17.9676 13.26 17.9636 13.088 17.9636 12.88C17.9636 12.664 17.9676 12.492 17.9756 12.364C17.9996 11.828 18.1196 11.356 18.3356 10.948C18.5596 10.54 18.8756 10.22 19.2836 9.988C19.6916 9.756 20.1956 9.64 20.7956 9.64C21.3956 9.64 21.8996 9.756 22.3076 9.988C22.7156 10.22 23.0276 10.54 23.2436 10.948C23.4676 11.356 23.5916 11.828 23.6156 12.364C23.6236 12.492 23.6276 12.664 23.6276 12.88C23.6276 13.088 23.6236 13.26 23.6156 13.396C23.5916 13.924 23.4716 14.396 23.2556 14.812C23.0396 15.22 22.7276 15.54 22.3196 15.772C21.9116 16.004 21.4036 16.12 20.7956 16.12ZM20.7956 15.196C21.2916 15.196 21.6876 15.04 21.9836 14.728C22.2796 14.408 22.4396 13.944 22.4636 13.336C22.4716 13.216 22.4756 13.064 22.4756 12.88C22.4756 12.696 22.4716 12.544 22.4636 12.424C22.4396 11.816 22.2796 11.356 21.9836 11.044C21.6876 10.724 21.2916 10.564 20.7956 10.564C20.2996 10.564 19.8996 10.724 19.5956 11.044C19.2996 11.356 19.1436 11.816 19.1276 12.424C19.1196 12.544 19.1156 12.696 19.1156 12.88C19.1156 13.064 19.1196 13.216 19.1276 13.336C19.1436 13.944 19.2996 14.408 19.5956 14.728C19.8996 15.04 20.2996 15.196 20.7956 15.196ZM25.4062 16C25.3262 16 25.2582 15.976 25.2022 15.928C25.1542 15.872 25.1302 15.804 25.1302 15.724V10.048C25.1302 9.968 25.1542 9.9 25.2022 9.844C25.2582 9.788 25.3262 9.76 25.4062 9.76H25.9582C26.0382 9.76 26.1062 9.788 26.1622 9.844C26.2182 9.9 26.2462 9.968 26.2462 10.048V10.576C26.4062 10.304 26.6262 10.1 26.9062 9.964C27.1862 9.828 27.5222 9.76 27.9142 9.76H28.3942C28.4742 9.76 28.5382 9.788 28.5862 9.844C28.6342 9.892 28.6582 9.956 28.6582 10.036V10.528C28.6582 10.608 28.6342 10.672 28.5862 10.72C28.5382 10.768 28.4742 10.792 28.3942 10.792H27.6742C27.2422 10.792 26.9022 10.92 26.6542 11.176C26.4062 11.424 26.2822 11.764 26.2822 12.196V15.724C26.2822 15.804 26.2542 15.872 26.1982 15.928C26.1422 15.976 26.0742 16 25.9942 16H25.4062ZM29.9768 16C29.8968 16 29.8288 15.976 29.7728 15.928C29.7248 15.872 29.7008 15.804 29.7008 15.724V7.756C29.7008 7.676 29.7248 7.612 29.7728 7.564C29.8288 7.508 29.8968 7.48 29.9768 7.48H30.5408C30.6208 7.48 30.6848 7.508 30.7328 7.564C30.7888 7.612 30.8168 7.676 30.8168 7.756V11.932L33.1808 9.964C33.2768 9.884 33.3488 9.832 33.3968 9.808C33.4528 9.776 33.5408 9.76 33.6608 9.76H34.2968C34.3688 9.76 34.4288 9.784 34.4768 9.832C34.5248 9.88 34.5488 9.94 34.5488 10.012C34.5488 10.044 34.5368 10.08 34.5128 10.12C34.4968 10.16 34.4608 10.2 34.4048 10.24L31.6328 12.544L34.7048 15.532C34.8008 15.612 34.8488 15.684 34.8488 15.748C34.8488 15.82 34.8248 15.88 34.7768 15.928C34.7288 15.976 34.6688 16 34.5968 16H33.9728C33.8528 16 33.7648 15.988 33.7088 15.964C33.6528 15.932 33.5808 15.876 33.4928 15.796L30.8168 13.24V15.724C30.8168 15.804 30.7888 15.872 30.7328 15.928C30.6848 15.976 30.6208 16 30.5408 16H29.9768ZM38.1393 16.12C37.5313 16.12 37.0233 16.004 36.6153 15.772C36.2073 15.54 35.8953 15.22 35.6793 14.812C35.4633 14.396 35.3433 13.924 35.3193 13.396C35.3113 13.26 35.3073 13.088 35.3073 12.88C35.3073 12.664 35.3113 12.492 35.3193 12.364C35.3433 11.828 35.4633 11.356 35.6793 10.948C35.9033 10.54 36.2193 10.22 36.6273 9.988C37.0353 9.756 37.5393 9.64 38.1393 9.64C38.7393 9.64 39.2433 9.756 39.6513 9.988C40.0593 10.22 40.3713 10.54 40.5873 10.948C40.8113 11.356 40.9353 11.828 40.9593 12.364C40.9673 12.492 40.9713 12.664 40.9713 12.88C40.9713 13.088 40.9673 13.26 40.9593 13.396C40.9353 13.924 40.8153 14.396 40.5993 14.812C40.3833 15.22 40.0713 15.54 39.6633 15.772C39.2553 16.004 38.7473 16.12 38.1393 16.12ZM38.1393 15.196C38.6353 15.196 39.0313 15.04 39.3273 14.728C39.6233 14.408 39.7833 13.944 39.8073 13.336C39.8153 13.216 39.8193 13.064 39.8193 12.88C39.8193 12.696 39.8153 12.544 39.8073 12.424C39.7833 11.816 39.6233 11.356 39.3273 11.044C39.0313 10.724 38.6353 10.564 38.1393 10.564C37.6433 10.564 37.2433 10.724 36.9393 11.044C36.6433 11.356 36.4873 11.816 36.4713 12.424C36.4633 12.544 36.4593 12.696 36.4593 12.88C36.4593 13.064 36.4633 13.216 36.4713 13.336C36.4873 13.944 36.6433 14.408 36.9393 14.728C37.2433 15.04 37.6433 15.196 38.1393 15.196ZM44.8019 16.12C44.2899 16.12 43.8539 16.008 43.4939 15.784C43.1419 15.552 42.8739 15.232 42.6899 14.824C42.5059 14.416 42.4139 13.948 42.4139 13.42V10.036C42.4139 9.956 42.4379 9.892 42.4859 9.844C42.5419 9.788 42.6099 9.76 42.6899 9.76H43.2899C43.3699 9.76 43.4339 9.788 43.4819 9.844C43.5379 9.892 43.5659 9.956 43.5659 10.036V13.36C43.5659 14.552 44.0859 15.148 45.1259 15.148C45.6219 15.148 46.0179 14.992 46.3139 14.68C46.6179 14.36 46.7699 13.92 46.7699 13.36V10.036C46.7699 9.956 46.7939 9.892 46.8419 9.844C46.8979 9.788 46.9659 9.76 47.0459 9.76H47.6339C47.7219 9.76 47.7899 9.788 47.8379 9.844C47.8859 9.892 47.9099 9.956 47.9099 10.036V15.724C47.9099 15.804 47.8859 15.872 47.8379 15.928C47.7899 15.976 47.7219 16 47.6339 16H47.0819C47.0019 16 46.9339 15.976 46.8779 15.928C46.8299 15.872 46.8059 15.804 46.8059 15.724V15.196C46.5899 15.476 46.3259 15.7 46.0139 15.868C45.7099 16.036 45.3059 16.12 44.8019 16.12ZM52.1287 16C51.6807 16 51.3167 15.916 51.0367 15.748C50.7567 15.572 50.5527 15.328 50.4247 15.016C50.2967 14.696 50.2327 14.32 50.2327 13.888V10.72H49.2967C49.2167 10.72 49.1487 10.696 49.0927 10.648C49.0447 10.592 49.0207 10.524 49.0207 10.444V10.036C49.0207 9.956 49.0447 9.892 49.0927 9.844C49.1487 9.788 49.2167 9.76 49.2967 9.76H50.2327V7.756C50.2327 7.676 50.2567 7.612 50.3047 7.564C50.3607 7.508 50.4287 7.48 50.5087 7.48H51.0727C51.1527 7.48 51.2167 7.508 51.2647 7.564C51.3207 7.612 51.3487 7.676 51.3487 7.756V9.76H52.8367C52.9167 9.76 52.9807 9.788 53.0287 9.844C53.0847 9.892 53.1127 9.956 53.1127 10.036V10.444C53.1127 10.524 53.0847 10.592 53.0287 10.648C52.9807 10.696 52.9167 10.72 52.8367 10.72H51.3487V13.804C51.3487 14.18 51.4127 14.476 51.5407 14.692C51.6687 14.908 51.8967 15.016 52.2247 15.016H52.9567C53.0367 15.016 53.1007 15.044 53.1487 15.1C53.2047 15.148 53.2327 15.212 53.2327 15.292V15.724C53.2327 15.804 53.2047 15.872 53.1487 15.928C53.1007 15.976 53.0367 16 52.9567 16H52.1287Z" fill="#FFA656"/>
</svg>
