<svg width="65" height="24" viewBox="0 0 65 24" fill="none" xmlns="http://www.w3.org/2000/svg">
<rect width="65" height="24" rx="6" fill="#F2F2F2"/>
<path d="M9.32 16C9.232 16 9.164 15.976 9.116 15.928C9.068 15.872 9.044 15.804 9.044 15.724V7.888C9.044 7.8 9.068 7.732 9.116 7.684C9.164 7.628 9.232 7.6 9.32 7.6H12.368C12.96 7.6 13.472 7.696 13.904 7.888C14.344 8.08 14.684 8.368 14.924 8.752C15.164 9.128 15.284 9.6 15.284 10.168C15.284 10.736 15.164 11.208 14.924 11.584C14.684 11.96 14.344 12.244 13.904 12.436C13.472 12.628 12.96 12.724 12.368 12.724H10.244V15.724C10.244 15.804 10.216 15.872 10.16 15.928C10.112 15.976 10.044 16 9.956 16H9.32ZM10.232 11.716H12.308C12.9 11.716 13.344 11.584 13.64 11.32C13.936 11.056 14.084 10.672 14.084 10.168C14.084 9.672 13.94 9.288 13.652 9.016C13.364 8.744 12.916 8.608 12.308 8.608H10.232V11.716ZM18.9892 16.12C18.1652 16.12 17.5092 15.868 17.0212 15.364C16.5332 14.852 16.2652 14.156 16.2172 13.276C16.2092 13.172 16.2052 13.04 16.2052 12.88C16.2052 12.712 16.2092 12.576 16.2172 12.472C16.2492 11.904 16.3812 11.408 16.6132 10.984C16.8452 10.552 17.1612 10.22 17.5612 9.988C17.9692 9.756 18.4452 9.64 18.9892 9.64C19.5972 9.64 20.1052 9.768 20.5132 10.024C20.9292 10.28 21.2452 10.644 21.4612 11.116C21.6772 11.588 21.7852 12.14 21.7852 12.772V12.976C21.7852 13.064 21.7572 13.132 21.7012 13.18C21.6532 13.228 21.5892 13.252 21.5092 13.252H17.3572C17.3572 13.26 17.3572 13.276 17.3572 13.3C17.3572 13.324 17.3572 13.344 17.3572 13.36C17.3732 13.688 17.4452 13.996 17.5732 14.284C17.7012 14.564 17.8852 14.792 18.1252 14.968C18.3652 15.144 18.6532 15.232 18.9892 15.232C19.2772 15.232 19.5172 15.188 19.7092 15.1C19.9012 15.012 20.0572 14.916 20.1772 14.812C20.2972 14.7 20.3772 14.616 20.4172 14.56C20.4892 14.456 20.5452 14.396 20.5852 14.38C20.6252 14.356 20.6892 14.344 20.7772 14.344H21.3532C21.4332 14.344 21.4972 14.368 21.5452 14.416C21.6012 14.456 21.6252 14.516 21.6172 14.596C21.6092 14.716 21.5452 14.864 21.4252 15.04C21.3052 15.208 21.1332 15.376 20.9092 15.544C20.6852 15.712 20.4132 15.852 20.0932 15.964C19.7732 16.068 19.4052 16.12 18.9892 16.12ZM17.3572 12.424H20.6452V12.388C20.6452 12.028 20.5772 11.708 20.4412 11.428C20.3132 11.148 20.1252 10.928 19.8772 10.768C19.6292 10.6 19.3332 10.516 18.9892 10.516C18.6452 10.516 18.3492 10.6 18.1012 10.768C17.8612 10.928 17.6772 11.148 17.5492 11.428C17.4212 11.708 17.3572 12.028 17.3572 12.388V12.424ZM23.496 16C23.416 16 23.348 15.976 23.292 15.928C23.244 15.872 23.22 15.804 23.22 15.724V10.048C23.22 9.968 23.244 9.9 23.292 9.844C23.348 9.788 23.416 9.76 23.496 9.76H24.048C24.128 9.76 24.196 9.788 24.252 9.844C24.308 9.9 24.336 9.968 24.336 10.048V10.576C24.496 10.304 24.716 10.1 24.996 9.964C25.276 9.828 25.612 9.76 26.004 9.76H26.484C26.564 9.76 26.628 9.788 26.676 9.844C26.724 9.892 26.748 9.956 26.748 10.036V10.528C26.748 10.608 26.724 10.672 26.676 10.72C26.628 10.768 26.564 10.792 26.484 10.792H25.764C25.332 10.792 24.992 10.92 24.744 11.176C24.496 11.424 24.372 11.764 24.372 12.196V15.724C24.372 15.804 24.344 15.872 24.288 15.928C24.232 15.976 24.164 16 24.084 16H23.496ZM29.9386 16.12C29.4906 16.12 29.1066 16.064 28.7866 15.952C28.4666 15.84 28.2066 15.704 28.0066 15.544C27.8066 15.384 27.6546 15.224 27.5506 15.064C27.4546 14.904 27.4026 14.776 27.3946 14.68C27.3866 14.592 27.4146 14.524 27.4786 14.476C27.5426 14.428 27.6066 14.404 27.6706 14.404H28.1986C28.2466 14.404 28.2826 14.412 28.3066 14.428C28.3386 14.436 28.3786 14.468 28.4266 14.524C28.5306 14.636 28.6466 14.748 28.7746 14.86C28.9026 14.972 29.0586 15.064 29.2426 15.136C29.4346 15.208 29.6706 15.244 29.9506 15.244C30.3586 15.244 30.6946 15.168 30.9586 15.016C31.2226 14.856 31.3546 14.624 31.3546 14.32C31.3546 14.12 31.2986 13.96 31.1866 13.84C31.0826 13.72 30.8906 13.612 30.6106 13.516C30.3386 13.42 29.9626 13.32 29.4826 13.216C29.0026 13.104 28.6226 12.968 28.3426 12.808C28.0626 12.64 27.8626 12.444 27.7426 12.22C27.6226 11.988 27.5626 11.728 27.5626 11.44C27.5626 11.144 27.6506 10.86 27.8266 10.588C28.0026 10.308 28.2586 10.08 28.5946 9.904C28.9386 9.728 29.3666 9.64 29.8786 9.64C30.2946 9.64 30.6506 9.692 30.9466 9.796C31.2426 9.9 31.4866 10.032 31.6786 10.192C31.8706 10.344 32.0146 10.496 32.1106 10.648C32.2066 10.8 32.2586 10.928 32.2666 11.032C32.2746 11.112 32.2506 11.18 32.1946 11.236C32.1386 11.284 32.0746 11.308 32.0026 11.308H31.4986C31.4426 11.308 31.3946 11.296 31.3546 11.272C31.3226 11.248 31.2906 11.22 31.2586 11.188C31.1786 11.084 31.0826 10.98 30.9706 10.876C30.8666 10.772 30.7266 10.688 30.5506 10.624C30.3826 10.552 30.1586 10.516 29.8786 10.516C29.4786 10.516 29.1786 10.6 28.9786 10.768C28.7786 10.936 28.6786 11.148 28.6786 11.404C28.6786 11.556 28.7226 11.692 28.8106 11.812C28.8986 11.932 29.0666 12.04 29.3146 12.136C29.5626 12.232 29.9306 12.336 30.4186 12.448C30.9466 12.552 31.3626 12.692 31.6666 12.868C31.9706 13.044 32.1866 13.248 32.3146 13.48C32.4426 13.712 32.5066 13.98 32.5066 14.284C32.5066 14.62 32.4066 14.928 32.2066 15.208C32.0146 15.488 31.7266 15.712 31.3426 15.88C30.9666 16.04 30.4986 16.12 29.9386 16.12ZM36.4518 16.12C35.8438 16.12 35.3358 16.004 34.9278 15.772C34.5198 15.54 34.2078 15.22 33.9918 14.812C33.7758 14.396 33.6558 13.924 33.6318 13.396C33.6238 13.26 33.6198 13.088 33.6198 12.88C33.6198 12.664 33.6238 12.492 33.6318 12.364C33.6558 11.828 33.7758 11.356 33.9918 10.948C34.2158 10.54 34.5318 10.22 34.9398 9.988C35.3478 9.756 35.8518 9.64 36.4518 9.64C37.0518 9.64 37.5558 9.756 37.9638 9.988C38.3718 10.22 38.6838 10.54 38.8998 10.948C39.1238 11.356 39.2478 11.828 39.2718 12.364C39.2798 12.492 39.2838 12.664 39.2838 12.88C39.2838 13.088 39.2798 13.26 39.2718 13.396C39.2478 13.924 39.1278 14.396 38.9118 14.812C38.6958 15.22 38.3838 15.54 37.9758 15.772C37.5678 16.004 37.0598 16.12 36.4518 16.12ZM36.4518 15.196C36.9478 15.196 37.3438 15.04 37.6398 14.728C37.9358 14.408 38.0958 13.944 38.1198 13.336C38.1278 13.216 38.1318 13.064 38.1318 12.88C38.1318 12.696 38.1278 12.544 38.1198 12.424C38.0958 11.816 37.9358 11.356 37.6398 11.044C37.3438 10.724 36.9478 10.564 36.4518 10.564C35.9558 10.564 35.5558 10.724 35.2518 11.044C34.9558 11.356 34.7998 11.816 34.7838 12.424C34.7758 12.544 34.7718 12.696 34.7718 12.88C34.7718 13.064 34.7758 13.216 34.7838 13.336C34.7998 13.944 34.9558 14.408 35.2518 14.728C35.5558 15.04 35.9558 15.196 36.4518 15.196ZM41.0624 16C40.9824 16 40.9144 15.976 40.8584 15.928C40.8104 15.872 40.7864 15.804 40.7864 15.724V10.036C40.7864 9.956 40.8104 9.892 40.8584 9.844C40.9144 9.788 40.9824 9.76 41.0624 9.76H41.6264C41.7064 9.76 41.7704 9.788 41.8184 9.844C41.8744 9.892 41.9024 9.956 41.9024 10.036V10.564C42.1104 10.292 42.3704 10.072 42.6824 9.904C43.0024 9.728 43.4104 9.64 43.9064 9.64C44.4264 9.64 44.8664 9.756 45.2264 9.988C45.5944 10.212 45.8704 10.528 46.0544 10.936C46.2384 11.336 46.3304 11.804 46.3304 12.34V15.724C46.3304 15.804 46.3064 15.872 46.2584 15.928C46.2104 15.976 46.1464 16 46.0664 16H45.4664C45.3864 16 45.3184 15.976 45.2624 15.928C45.2144 15.872 45.1904 15.804 45.1904 15.724V12.4C45.1904 11.84 45.0544 11.404 44.7824 11.092C44.5104 10.772 44.1104 10.612 43.5824 10.612C43.0864 10.612 42.6864 10.772 42.3824 11.092C42.0864 11.404 41.9384 11.84 41.9384 12.4V15.724C41.9384 15.804 41.9104 15.872 41.8544 15.928C41.8064 15.976 41.7424 16 41.6624 16H41.0624ZM49.8038 16.12C49.4038 16.12 49.0398 16.04 48.7118 15.88C48.3838 15.72 48.1198 15.504 47.9198 15.232C47.7198 14.96 47.6198 14.652 47.6198 14.308C47.6198 13.756 47.8438 13.316 48.2918 12.988C48.7398 12.66 49.3238 12.444 50.0438 12.34L51.8318 12.088V11.74C51.8318 11.356 51.7198 11.056 51.4958 10.84C51.2798 10.624 50.9238 10.516 50.4278 10.516C50.0678 10.516 49.7758 10.588 49.5518 10.732C49.3358 10.876 49.1838 11.06 49.0958 11.284C49.0478 11.404 48.9638 11.464 48.8438 11.464H48.3038C48.2158 11.464 48.1478 11.44 48.0998 11.392C48.0598 11.336 48.0398 11.272 48.0398 11.2C48.0398 11.08 48.0838 10.932 48.1718 10.756C48.2678 10.58 48.4118 10.408 48.6038 10.24C48.7958 10.072 49.0398 9.932 49.3358 9.82C49.6398 9.7 50.0078 9.64 50.4398 9.64C50.9198 9.64 51.3238 9.704 51.6518 9.832C51.9798 9.952 52.2358 10.116 52.4198 10.324C52.6118 10.532 52.7478 10.768 52.8278 11.032C52.9158 11.296 52.9598 11.564 52.9598 11.836V15.724C52.9598 15.804 52.9318 15.872 52.8758 15.928C52.8278 15.976 52.7638 16 52.6838 16H52.1318C52.0438 16 51.9758 15.976 51.9278 15.928C51.8798 15.872 51.8558 15.804 51.8558 15.724V15.208C51.7518 15.352 51.6118 15.496 51.4358 15.64C51.2598 15.776 51.0398 15.892 50.7758 15.988C50.5118 16.076 50.1878 16.12 49.8038 16.12ZM50.0558 15.22C50.3838 15.22 50.6838 15.152 50.9558 15.016C51.2278 14.872 51.4398 14.652 51.5918 14.356C51.7518 14.06 51.8318 13.688 51.8318 13.24V12.904L50.4398 13.108C49.8718 13.188 49.4438 13.324 49.1558 13.516C48.8678 13.7 48.7238 13.936 48.7238 14.224C48.7238 14.448 48.7878 14.636 48.9158 14.788C49.0518 14.932 49.2198 15.04 49.4198 15.112C49.6278 15.184 49.8398 15.22 50.0558 15.22ZM54.9729 16C54.8929 16 54.8249 15.976 54.7689 15.928C54.7209 15.872 54.6969 15.804 54.6969 15.724V7.756C54.6969 7.676 54.7209 7.612 54.7689 7.564C54.8249 7.508 54.8929 7.48 54.9729 7.48H55.5369C55.6249 7.48 55.6929 7.508 55.7409 7.564C55.7889 7.612 55.8129 7.676 55.8129 7.756V15.724C55.8129 15.804 55.7889 15.872 55.7409 15.928C55.6929 15.976 55.6249 16 55.5369 16H54.9729Z" fill="#828282"/>
</svg>
