<svg width="44" height="44" viewBox="0 0 44 44" fill="none" xmlns="http://www.w3.org/2000/svg">
<circle cx="22" cy="22" r="22" fill="#07E092"/>
<path d="M21.9999 17.5C22.7499 14.5394 25.5825 13.0277 31.7499 13C31.8485 12.9996 31.9462 13.0188 32.0373 13.0563C32.1285 13.0939 32.2113 13.1491 32.281 13.2188C32.3508 13.2886 32.406 13.3714 32.4436 13.4626C32.4811 13.5537 32.5003 13.6514 32.4999 13.75V27.25C32.4999 27.4489 32.4209 27.6397 32.2802 27.7803C32.1396 27.921 31.9488 28 31.7499 28C25.7499 28 23.4319 29.2098 21.9999 31C20.5763 29.2188 18.2499 28 12.2499 28C11.7868 28 11.4999 27.6227 11.4999 27.1595V13.75C11.4995 13.6514 11.5187 13.5537 11.5562 13.4626C11.5938 13.3714 11.649 13.2886 11.7187 13.2188C11.7884 13.1491 11.8713 13.0939 11.9624 13.0563C12.0536 13.0188 12.1513 12.9996 12.2499 13C18.4172 13.0277 21.2499 14.5394 21.9999 17.5Z" stroke="white" stroke-width="2" stroke-linecap="round" stroke-linejoin="round"/>
<path d="M22 17.5V31" stroke="white" stroke-width="2" stroke-linecap="round" stroke-linejoin="round"/>
</svg>
