<svg width="44" height="44" viewBox="0 0 44 44" fill="none" xmlns="http://www.w3.org/2000/svg">
<circle cx="22" cy="22" r="22" fill="#FD5B71"/>
<path d="M17.5001 28.2343C17.2617 28.2346 17.0314 28.1479 16.8523 27.9906L10.8523 22.7406C10.7468 22.6482 10.6622 22.5343 10.6043 22.4066C10.5463 22.2789 10.5164 22.1402 10.5164 22C10.5164 21.8597 10.5463 21.7211 10.6043 21.5933C10.6622 21.4656 10.7468 21.3517 10.8523 21.2593L16.8523 16.0093C17.0488 15.8374 17.3055 15.7506 17.566 15.7679C17.8266 15.7853 18.0695 15.9054 18.2414 16.1019C18.4134 16.2984 18.5002 16.5551 18.4828 16.8157C18.4655 17.0762 18.3453 17.3191 18.1489 17.4911L12.995 22L18.1484 26.5089C18.2992 26.6407 18.4062 26.8155 18.4551 27.0098C18.504 27.2041 18.4924 27.4086 18.422 27.5962C18.3515 27.7837 18.2255 27.9453 18.0608 28.0593C17.8961 28.1734 17.7005 28.2344 17.5001 28.2343Z" fill="white"/>
<path d="M26.5 28.2343C26.2996 28.2345 26.1039 28.1735 25.9392 28.0595C25.7744 27.9455 25.6483 27.784 25.5777 27.5964C25.5072 27.4088 25.4956 27.2042 25.5445 27.0099C25.5934 26.8155 25.7004 26.6408 25.8512 26.5089L31.0052 22L25.8517 17.4911C25.6552 17.3191 25.5351 17.0762 25.5177 16.8157C25.5004 16.5551 25.5872 16.2984 25.7591 16.1019C25.9311 15.9054 26.174 15.7853 26.4345 15.7679C26.695 15.7506 26.9518 15.8374 27.1483 16.0093L33.1483 21.2593C33.2538 21.3517 33.3384 21.4656 33.3963 21.5933C33.4543 21.7211 33.4842 21.8597 33.4842 22C33.4842 22.1402 33.4543 22.2789 33.3963 22.4066C33.3384 22.5343 33.2538 22.6482 33.1483 22.7406L27.1483 27.9906C26.9691 28.1481 26.7386 28.2348 26.5 28.2343Z" fill="white"/>
<path d="M19.75 30.4844C19.5967 30.4843 19.4456 30.4485 19.3086 30.3797C19.1716 30.3109 19.0525 30.2111 18.9609 30.0882C18.8693 29.9653 18.8077 29.8226 18.781 29.6717C18.7542 29.5207 18.7631 29.3656 18.8069 29.2187L23.3069 14.2187C23.3408 14.0914 23.3999 13.9723 23.4807 13.8682C23.5615 13.7642 23.6624 13.6774 23.7773 13.6131C23.8922 13.5488 24.0189 13.5081 24.1498 13.4936C24.2808 13.4792 24.4133 13.4911 24.5395 13.5287C24.6657 13.5664 24.7831 13.629 24.8847 13.7128C24.9863 13.7967 25.07 13.9001 25.1309 14.0169C25.1919 14.1337 25.2287 14.2615 25.2393 14.3928C25.2499 14.5241 25.2341 14.6562 25.1927 14.7812L20.6927 29.7812C20.6322 29.9843 20.5077 30.1624 20.3379 30.289C20.1681 30.4157 19.9619 30.4842 19.75 30.4844Z" fill="white"/>
</svg>
