<svg width="43" height="24" viewBox="0 0 43 24" fill="none" xmlns="http://www.w3.org/2000/svg">
<rect width="43" height="24" rx="6" fill="#FFEFF1"/>
<path d="M10.46 16C10.356 16 10.272 15.972 10.208 15.916C10.152 15.86 10.112 15.78 10.088 15.676L8.54 7.972C8.532 7.94 8.528 7.912 8.528 7.888C8.528 7.864 8.528 7.848 8.528 7.84C8.528 7.776 8.552 7.72 8.6 7.672C8.648 7.624 8.704 7.6 8.768 7.6H9.392C9.56 7.6 9.656 7.668 9.68 7.804L10.904 13.996L12.2 9.748C12.224 9.676 12.264 9.612 12.32 9.556C12.384 9.492 12.472 9.46 12.584 9.46H13.028C13.148 9.46 13.236 9.492 13.292 9.556C13.348 9.612 13.384 9.676 13.4 9.748L14.708 13.996L15.92 7.804C15.944 7.668 16.044 7.6 16.22 7.6H16.844C16.908 7.6 16.964 7.624 17.012 7.672C17.06 7.72 17.084 7.776 17.084 7.84C17.084 7.848 17.08 7.864 17.072 7.888C17.072 7.912 17.072 7.94 17.072 7.972L15.524 15.676C15.5 15.78 15.456 15.86 15.392 15.916C15.336 15.972 15.256 16 15.152 16H14.684C14.572 16 14.484 15.972 14.42 15.916C14.356 15.86 14.312 15.788 14.288 15.7L12.8 11.128L11.324 15.7C11.292 15.788 11.244 15.86 11.18 15.916C11.124 15.972 11.04 16 10.928 16H10.46ZM20.7956 16.12C20.1876 16.12 19.6796 16.004 19.2716 15.772C18.8636 15.54 18.5516 15.22 18.3356 14.812C18.1196 14.396 17.9996 13.924 17.9756 13.396C17.9676 13.26 17.9636 13.088 17.9636 12.88C17.9636 12.664 17.9676 12.492 17.9756 12.364C17.9996 11.828 18.1196 11.356 18.3356 10.948C18.5596 10.54 18.8756 10.22 19.2836 9.988C19.6916 9.756 20.1956 9.64 20.7956 9.64C21.3956 9.64 21.8996 9.756 22.3076 9.988C22.7156 10.22 23.0276 10.54 23.2436 10.948C23.4676 11.356 23.5916 11.828 23.6156 12.364C23.6236 12.492 23.6276 12.664 23.6276 12.88C23.6276 13.088 23.6236 13.26 23.6156 13.396C23.5916 13.924 23.4716 14.396 23.2556 14.812C23.0396 15.22 22.7276 15.54 22.3196 15.772C21.9116 16.004 21.4036 16.12 20.7956 16.12ZM20.7956 15.196C21.2916 15.196 21.6876 15.04 21.9836 14.728C22.2796 14.408 22.4396 13.944 22.4636 13.336C22.4716 13.216 22.4756 13.064 22.4756 12.88C22.4756 12.696 22.4716 12.544 22.4636 12.424C22.4396 11.816 22.2796 11.356 21.9836 11.044C21.6876 10.724 21.2916 10.564 20.7956 10.564C20.2996 10.564 19.8996 10.724 19.5956 11.044C19.2996 11.356 19.1436 11.816 19.1276 12.424C19.1196 12.544 19.1156 12.696 19.1156 12.88C19.1156 13.064 19.1196 13.216 19.1276 13.336C19.1436 13.944 19.2996 14.408 19.5956 14.728C19.8996 15.04 20.2996 15.196 20.7956 15.196ZM25.4062 16C25.3262 16 25.2582 15.976 25.2022 15.928C25.1542 15.872 25.1302 15.804 25.1302 15.724V10.048C25.1302 9.968 25.1542 9.9 25.2022 9.844C25.2582 9.788 25.3262 9.76 25.4062 9.76H25.9582C26.0382 9.76 26.1062 9.788 26.1622 9.844C26.2182 9.9 26.2462 9.968 26.2462 10.048V10.576C26.4062 10.304 26.6262 10.1 26.9062 9.964C27.1862 9.828 27.5222 9.76 27.9142 9.76H28.3942C28.4742 9.76 28.5382 9.788 28.5862 9.844C28.6342 9.892 28.6582 9.956 28.6582 10.036V10.528C28.6582 10.608 28.6342 10.672 28.5862 10.72C28.5382 10.768 28.4742 10.792 28.3942 10.792H27.6742C27.2422 10.792 26.9022 10.92 26.6542 11.176C26.4062 11.424 26.2822 11.764 26.2822 12.196V15.724C26.2822 15.804 26.2542 15.872 26.1982 15.928C26.1422 15.976 26.0742 16 25.9942 16H25.4062ZM29.9768 16C29.8968 16 29.8288 15.976 29.7728 15.928C29.7248 15.872 29.7008 15.804 29.7008 15.724V7.756C29.7008 7.676 29.7248 7.612 29.7728 7.564C29.8288 7.508 29.8968 7.48 29.9768 7.48H30.5408C30.6208 7.48 30.6848 7.508 30.7328 7.564C30.7888 7.612 30.8168 7.676 30.8168 7.756V11.932L33.1808 9.964C33.2768 9.884 33.3488 9.832 33.3968 9.808C33.4528 9.776 33.5408 9.76 33.6608 9.76H34.2968C34.3688 9.76 34.4288 9.784 34.4768 9.832C34.5248 9.88 34.5488 9.94 34.5488 10.012C34.5488 10.044 34.5368 10.08 34.5128 10.12C34.4968 10.16 34.4608 10.2 34.4048 10.24L31.6328 12.544L34.7048 15.532C34.8008 15.612 34.8488 15.684 34.8488 15.748C34.8488 15.82 34.8248 15.88 34.7768 15.928C34.7288 15.976 34.6688 16 34.5968 16H33.9728C33.8528 16 33.7648 15.988 33.7088 15.964C33.6528 15.932 33.5808 15.876 33.4928 15.796L30.8168 13.24V15.724C30.8168 15.804 30.7888 15.872 30.7328 15.928C30.6848 15.976 30.6208 16 30.5408 16H29.9768Z" fill="#FD5B71"/>
</svg>
