<svg width="62" height="24" viewBox="0 0 62 24" fill="none" xmlns="http://www.w3.org/2000/svg">
<rect width="62" height="24" rx="6" fill="#E6FCF4"/>
<path d="M9.32 16C9.232 16 9.164 15.976 9.116 15.928C9.068 15.872 9.044 15.804 9.044 15.724V7.888C9.044 7.8 9.068 7.732 9.116 7.684C9.164 7.628 9.232 7.6 9.32 7.6H12.248C13.152 7.6 13.868 7.812 14.396 8.236C14.924 8.66 15.188 9.288 15.188 10.12C15.188 10.736 15.032 11.24 14.72 11.632C14.416 12.016 14 12.284 13.472 12.436L15.32 15.628C15.344 15.676 15.356 15.72 15.356 15.76C15.356 15.824 15.328 15.88 15.272 15.928C15.224 15.976 15.168 16 15.104 16H14.528C14.392 16 14.292 15.964 14.228 15.892C14.164 15.82 14.108 15.748 14.06 15.676L12.32 12.628H10.22V15.724C10.22 15.804 10.192 15.872 10.136 15.928C10.088 15.976 10.02 16 9.932 16H9.32ZM10.22 11.608H12.2C12.8 11.608 13.248 11.484 13.544 11.236C13.84 10.98 13.988 10.604 13.988 10.108C13.988 9.62 13.84 9.248 13.544 8.992C13.256 8.736 12.808 8.608 12.2 8.608H10.22V11.608ZM19.165 16.12C18.341 16.12 17.685 15.868 17.197 15.364C16.709 14.852 16.441 14.156 16.393 13.276C16.385 13.172 16.381 13.04 16.381 12.88C16.381 12.712 16.385 12.576 16.393 12.472C16.425 11.904 16.557 11.408 16.789 10.984C17.021 10.552 17.337 10.22 17.737 9.988C18.145 9.756 18.621 9.64 19.165 9.64C19.773 9.64 20.281 9.768 20.689 10.024C21.105 10.28 21.421 10.644 21.637 11.116C21.853 11.588 21.961 12.14 21.961 12.772V12.976C21.961 13.064 21.933 13.132 21.877 13.18C21.829 13.228 21.765 13.252 21.685 13.252H17.533C17.533 13.26 17.533 13.276 17.533 13.3C17.533 13.324 17.533 13.344 17.533 13.36C17.549 13.688 17.621 13.996 17.749 14.284C17.877 14.564 18.061 14.792 18.301 14.968C18.541 15.144 18.829 15.232 19.165 15.232C19.453 15.232 19.693 15.188 19.885 15.1C20.077 15.012 20.233 14.916 20.353 14.812C20.473 14.7 20.553 14.616 20.593 14.56C20.665 14.456 20.721 14.396 20.761 14.38C20.801 14.356 20.865 14.344 20.953 14.344H21.529C21.609 14.344 21.673 14.368 21.721 14.416C21.777 14.456 21.801 14.516 21.793 14.596C21.785 14.716 21.721 14.864 21.601 15.04C21.481 15.208 21.309 15.376 21.085 15.544C20.861 15.712 20.589 15.852 20.269 15.964C19.949 16.068 19.581 16.12 19.165 16.12ZM17.533 12.424H20.821V12.388C20.821 12.028 20.753 11.708 20.617 11.428C20.489 11.148 20.301 10.928 20.053 10.768C19.805 10.6 19.509 10.516 19.165 10.516C18.821 10.516 18.525 10.6 18.277 10.768C18.037 10.928 17.853 11.148 17.725 11.428C17.597 11.708 17.533 12.028 17.533 12.388V12.424ZM25.1358 16.12C24.7358 16.12 24.3718 16.04 24.0438 15.88C23.7158 15.72 23.4518 15.504 23.2518 15.232C23.0518 14.96 22.9518 14.652 22.9518 14.308C22.9518 13.756 23.1758 13.316 23.6238 12.988C24.0718 12.66 24.6558 12.444 25.3758 12.34L27.1638 12.088V11.74C27.1638 11.356 27.0518 11.056 26.8278 10.84C26.6118 10.624 26.2558 10.516 25.7598 10.516C25.3998 10.516 25.1078 10.588 24.8838 10.732C24.6678 10.876 24.5158 11.06 24.4278 11.284C24.3798 11.404 24.2958 11.464 24.1758 11.464H23.6358C23.5478 11.464 23.4798 11.44 23.4318 11.392C23.3918 11.336 23.3718 11.272 23.3718 11.2C23.3718 11.08 23.4158 10.932 23.5038 10.756C23.5998 10.58 23.7438 10.408 23.9358 10.24C24.1278 10.072 24.3718 9.932 24.6678 9.82C24.9718 9.7 25.3398 9.64 25.7718 9.64C26.2518 9.64 26.6558 9.704 26.9838 9.832C27.3118 9.952 27.5678 10.116 27.7518 10.324C27.9438 10.532 28.0798 10.768 28.1598 11.032C28.2478 11.296 28.2918 11.564 28.2918 11.836V15.724C28.2918 15.804 28.2638 15.872 28.2078 15.928C28.1598 15.976 28.0958 16 28.0158 16H27.4638C27.3758 16 27.3078 15.976 27.2598 15.928C27.2118 15.872 27.1878 15.804 27.1878 15.724V15.208C27.0838 15.352 26.9438 15.496 26.7678 15.64C26.5918 15.776 26.3718 15.892 26.1078 15.988C25.8438 16.076 25.5198 16.12 25.1358 16.12ZM25.3878 15.22C25.7158 15.22 26.0158 15.152 26.2878 15.016C26.5598 14.872 26.7718 14.652 26.9238 14.356C27.0838 14.06 27.1638 13.688 27.1638 13.24V12.904L25.7718 13.108C25.2038 13.188 24.7758 13.324 24.4878 13.516C24.1998 13.7 24.0558 13.936 24.0558 14.224C24.0558 14.448 24.1198 14.636 24.2478 14.788C24.3838 14.932 24.5518 15.04 24.7518 15.112C24.9598 15.184 25.1718 15.22 25.3878 15.22ZM32.2969 16.12C31.8569 16.12 31.4769 16.044 31.1569 15.892C30.8369 15.732 30.5729 15.52 30.3649 15.256C30.1649 14.984 30.0129 14.676 29.9089 14.332C29.8129 13.988 29.7569 13.624 29.7409 13.24C29.7329 13.112 29.7289 12.992 29.7289 12.88C29.7289 12.768 29.7329 12.648 29.7409 12.52C29.7569 12.144 29.8129 11.784 29.9089 11.44C30.0129 11.096 30.1649 10.788 30.3649 10.516C30.5729 10.244 30.8369 10.032 31.1569 9.88C31.4769 9.72 31.8569 9.64 32.2969 9.64C32.7689 9.64 33.1609 9.724 33.4729 9.892C33.7849 10.06 34.0409 10.268 34.2409 10.516V7.756C34.2409 7.676 34.2649 7.612 34.3129 7.564C34.3689 7.508 34.4369 7.48 34.5169 7.48H35.0929C35.1729 7.48 35.2369 7.508 35.2849 7.564C35.3409 7.612 35.3689 7.676 35.3689 7.756V15.724C35.3689 15.804 35.3409 15.872 35.2849 15.928C35.2369 15.976 35.1729 16 35.0929 16H34.5529C34.4649 16 34.3969 15.976 34.3489 15.928C34.3009 15.872 34.2769 15.804 34.2769 15.724V15.22C34.0769 15.476 33.8169 15.692 33.4969 15.868C33.1769 16.036 32.7769 16.12 32.2969 16.12ZM32.5489 15.148C32.9489 15.148 33.2689 15.056 33.5089 14.872C33.7489 14.688 33.9289 14.456 34.0489 14.176C34.1689 13.888 34.2329 13.596 34.2409 13.3C34.2489 13.172 34.2529 13.02 34.2529 12.844C34.2529 12.66 34.2489 12.504 34.2409 12.376C34.2329 12.096 34.1649 11.82 34.0369 11.548C33.9169 11.276 33.7329 11.052 33.4849 10.876C33.2449 10.7 32.9329 10.612 32.5489 10.612C32.1409 10.612 31.8169 10.704 31.5769 10.888C31.3369 11.064 31.1649 11.3 31.0609 11.596C30.9569 11.884 30.8969 12.196 30.8809 12.532C30.8729 12.764 30.8729 12.996 30.8809 13.228C30.8969 13.564 30.9569 13.88 31.0609 14.176C31.1649 14.464 31.3369 14.7 31.5769 14.884C31.8169 15.06 32.1409 15.148 32.5489 15.148ZM37.4296 16C37.3496 16 37.2816 15.976 37.2256 15.928C37.1776 15.872 37.1536 15.804 37.1536 15.724V10.036C37.1536 9.956 37.1776 9.892 37.2256 9.844C37.2816 9.788 37.3496 9.76 37.4296 9.76H38.0056C38.0856 9.76 38.1496 9.788 38.1976 9.844C38.2456 9.892 38.2696 9.956 38.2696 10.036V15.724C38.2696 15.804 38.2456 15.872 38.1976 15.928C38.1496 15.976 38.0856 16 38.0056 16H37.4296ZM37.3336 8.596C37.2536 8.596 37.1856 8.572 37.1296 8.524C37.0816 8.468 37.0576 8.4 37.0576 8.32V7.672C37.0576 7.592 37.0816 7.528 37.1296 7.48C37.1856 7.424 37.2536 7.396 37.3336 7.396H38.0896C38.1696 7.396 38.2336 7.424 38.2816 7.48C38.3376 7.528 38.3656 7.592 38.3656 7.672V8.32C38.3656 8.4 38.3376 8.468 38.2816 8.524C38.2336 8.572 38.1696 8.596 38.0896 8.596H37.3336ZM40.4531 16C40.3731 16 40.3051 15.976 40.2491 15.928C40.2011 15.872 40.1771 15.804 40.1771 15.724V10.036C40.1771 9.956 40.2011 9.892 40.2491 9.844C40.3051 9.788 40.3731 9.76 40.4531 9.76H41.0171C41.0971 9.76 41.1611 9.788 41.2091 9.844C41.2651 9.892 41.2931 9.956 41.2931 10.036V10.564C41.5011 10.292 41.7611 10.072 42.0731 9.904C42.3931 9.728 42.8011 9.64 43.2971 9.64C43.8171 9.64 44.2571 9.756 44.6171 9.988C44.9851 10.212 45.2611 10.528 45.4451 10.936C45.6291 11.336 45.7211 11.804 45.7211 12.34V15.724C45.7211 15.804 45.6971 15.872 45.6491 15.928C45.6011 15.976 45.5371 16 45.4571 16H44.8571C44.7771 16 44.7091 15.976 44.6531 15.928C44.6051 15.872 44.5811 15.804 44.5811 15.724V12.4C44.5811 11.84 44.4451 11.404 44.1731 11.092C43.9011 10.772 43.5011 10.612 42.9731 10.612C42.4771 10.612 42.0771 10.772 41.7731 11.092C41.4771 11.404 41.3291 11.84 41.3291 12.4V15.724C41.3291 15.804 41.3011 15.872 41.2451 15.928C41.1971 15.976 41.1331 16 41.0531 16H40.4531ZM50.0104 18.64C49.4664 18.64 49.0184 18.568 48.6664 18.424C48.3224 18.28 48.0504 18.104 47.8504 17.896C47.6584 17.696 47.5184 17.492 47.4304 17.284C47.3504 17.084 47.3064 16.924 47.2984 16.804C47.2904 16.724 47.3144 16.656 47.3704 16.6C47.4344 16.544 47.5024 16.516 47.5744 16.516H48.1504C48.2224 16.516 48.2824 16.532 48.3304 16.564C48.3784 16.596 48.4184 16.664 48.4504 16.768C48.4984 16.888 48.5704 17.02 48.6664 17.164C48.7624 17.316 48.9104 17.444 49.1104 17.548C49.3104 17.66 49.5904 17.716 49.9504 17.716C50.3264 17.716 50.6424 17.664 50.8984 17.56C51.1544 17.464 51.3464 17.288 51.4744 17.032C51.6104 16.784 51.6784 16.44 51.6784 16V15.184C51.4864 15.432 51.2344 15.64 50.9224 15.808C50.6104 15.968 50.2184 16.048 49.7464 16.048C49.2984 16.048 48.9144 15.972 48.5944 15.82C48.2744 15.66 48.0104 15.448 47.8024 15.184C47.6024 14.912 47.4504 14.604 47.3464 14.26C47.2504 13.916 47.1944 13.556 47.1784 13.18C47.1704 12.956 47.1704 12.736 47.1784 12.52C47.1944 12.144 47.2504 11.784 47.3464 11.44C47.4504 11.096 47.6024 10.788 47.8024 10.516C48.0104 10.244 48.2744 10.032 48.5944 9.88C48.9144 9.72 49.2984 9.64 49.7464 9.64C50.2264 9.64 50.6224 9.732 50.9344 9.916C51.2544 10.092 51.5144 10.308 51.7144 10.564V10.048C51.7144 9.968 51.7384 9.9 51.7864 9.844C51.8424 9.788 51.9104 9.76 51.9904 9.76H52.5424C52.6224 9.76 52.6904 9.788 52.7464 9.844C52.8024 9.9 52.8304 9.968 52.8304 10.048V15.868C52.8304 16.404 52.7384 16.88 52.5544 17.296C52.3784 17.712 52.0824 18.04 51.6664 18.28C51.2584 18.52 50.7064 18.64 50.0104 18.64ZM49.9864 15.088C50.3864 15.088 50.7064 14.996 50.9464 14.812C51.1944 14.628 51.3744 14.396 51.4864 14.116C51.6064 13.836 51.6704 13.552 51.6784 13.264C51.6864 13.152 51.6904 13.016 51.6904 12.856C51.6904 12.688 51.6864 12.548 51.6784 12.436C51.6704 12.148 51.6064 11.864 51.4864 11.584C51.3744 11.304 51.1944 11.072 50.9464 10.888C50.7064 10.704 50.3864 10.612 49.9864 10.612C49.5864 10.612 49.2664 10.704 49.0264 10.888C48.7864 11.064 48.6144 11.3 48.5104 11.596C48.4064 11.884 48.3464 12.196 48.3304 12.532C48.3224 12.74 48.3224 12.952 48.3304 13.168C48.3464 13.504 48.4064 13.82 48.5104 14.116C48.6144 14.404 48.7864 14.64 49.0264 14.824C49.2664 15 49.5864 15.088 49.9864 15.088Z" fill="#07E092"/>
</svg>
