<svg width="56" height="24" viewBox="0 0 56 24" fill="none" xmlns="http://www.w3.org/2000/svg">
<rect width="56" height="24" rx="6" fill="#FFEFF1"/>
<path d="M12.068 16.12C11.332 16.12 10.72 15.984 10.232 15.712C9.752 15.44 9.388 15.06 9.14 14.572C8.892 14.084 8.756 13.516 8.732 12.868C8.724 12.54 8.72 12.188 8.72 11.812C8.72 11.436 8.724 11.076 8.732 10.732C8.756 10.084 8.892 9.516 9.14 9.028C9.388 8.54 9.752 8.16 10.232 7.888C10.72 7.616 11.332 7.48 12.068 7.48C12.62 7.48 13.104 7.556 13.52 7.708C13.936 7.86 14.28 8.064 14.552 8.32C14.832 8.576 15.044 8.864 15.188 9.184C15.332 9.496 15.412 9.82 15.428 10.156C15.436 10.228 15.412 10.288 15.356 10.336C15.308 10.384 15.248 10.408 15.176 10.408H14.516C14.444 10.408 14.38 10.388 14.324 10.348C14.276 10.308 14.24 10.236 14.216 10.132C14.08 9.508 13.824 9.08 13.448 8.848C13.08 8.616 12.616 8.5 12.056 8.5C11.416 8.5 10.908 8.684 10.532 9.052C10.156 9.412 9.952 9.992 9.92 10.792C9.896 11.448 9.896 12.12 9.92 12.808C9.952 13.608 10.156 14.192 10.532 14.56C10.908 14.92 11.416 15.1 12.056 15.1C12.616 15.1 13.08 14.984 13.448 14.752C13.824 14.52 14.08 14.092 14.216 13.468C14.24 13.364 14.276 13.292 14.324 13.252C14.38 13.212 14.444 13.192 14.516 13.192H15.176C15.248 13.192 15.308 13.216 15.356 13.264C15.412 13.312 15.436 13.372 15.428 13.444C15.412 13.78 15.332 14.108 15.188 14.428C15.044 14.74 14.832 15.024 14.552 15.28C14.28 15.536 13.936 15.74 13.52 15.892C13.104 16.044 12.62 16.12 12.068 16.12ZM19.4362 16.12C18.8282 16.12 18.3202 16.004 17.9122 15.772C17.5042 15.54 17.1922 15.22 16.9762 14.812C16.7602 14.396 16.6402 13.924 16.6162 13.396C16.6082 13.26 16.6042 13.088 16.6042 12.88C16.6042 12.664 16.6082 12.492 16.6162 12.364C16.6402 11.828 16.7602 11.356 16.9762 10.948C17.2002 10.54 17.5162 10.22 17.9242 9.988C18.3322 9.756 18.8362 9.64 19.4362 9.64C20.0362 9.64 20.5402 9.756 20.9482 9.988C21.3562 10.22 21.6682 10.54 21.8842 10.948C22.1082 11.356 22.2322 11.828 22.2562 12.364C22.2642 12.492 22.2682 12.664 22.2682 12.88C22.2682 13.088 22.2642 13.26 22.2562 13.396C22.2322 13.924 22.1122 14.396 21.8962 14.812C21.6802 15.22 21.3682 15.54 20.9602 15.772C20.5522 16.004 20.0442 16.12 19.4362 16.12ZM19.4362 15.196C19.9322 15.196 20.3282 15.04 20.6242 14.728C20.9202 14.408 21.0802 13.944 21.1042 13.336C21.1122 13.216 21.1162 13.064 21.1162 12.88C21.1162 12.696 21.1122 12.544 21.1042 12.424C21.0802 11.816 20.9202 11.356 20.6242 11.044C20.3282 10.724 19.9322 10.564 19.4362 10.564C18.9402 10.564 18.5402 10.724 18.2362 11.044C17.9402 11.356 17.7842 11.816 17.7682 12.424C17.7602 12.544 17.7562 12.696 17.7562 12.88C17.7562 13.064 17.7602 13.216 17.7682 13.336C17.7842 13.944 17.9402 14.408 18.2362 14.728C18.5402 15.04 18.9402 15.196 19.4362 15.196ZM26.0508 16.12C25.6108 16.12 25.2308 16.044 24.9108 15.892C24.5908 15.732 24.3268 15.52 24.1188 15.256C23.9188 14.984 23.7668 14.676 23.6628 14.332C23.5668 13.988 23.5108 13.624 23.4948 13.24C23.4868 13.112 23.4828 12.992 23.4828 12.88C23.4828 12.768 23.4868 12.648 23.4948 12.52C23.5108 12.144 23.5668 11.784 23.6628 11.44C23.7668 11.096 23.9188 10.788 24.1188 10.516C24.3268 10.244 24.5908 10.032 24.9108 9.88C25.2308 9.72 25.6108 9.64 26.0508 9.64C26.5228 9.64 26.9148 9.724 27.2268 9.892C27.5388 10.06 27.7948 10.268 27.9948 10.516V7.756C27.9948 7.676 28.0188 7.612 28.0668 7.564C28.1228 7.508 28.1908 7.48 28.2708 7.48H28.8468C28.9268 7.48 28.9908 7.508 29.0388 7.564C29.0948 7.612 29.1228 7.676 29.1228 7.756V15.724C29.1228 15.804 29.0948 15.872 29.0388 15.928C28.9908 15.976 28.9268 16 28.8468 16H28.3068C28.2188 16 28.1508 15.976 28.1028 15.928C28.0548 15.872 28.0308 15.804 28.0308 15.724V15.22C27.8308 15.476 27.5708 15.692 27.2508 15.868C26.9308 16.036 26.5308 16.12 26.0508 16.12ZM26.3028 15.148C26.7028 15.148 27.0228 15.056 27.2628 14.872C27.5028 14.688 27.6828 14.456 27.8028 14.176C27.9228 13.888 27.9868 13.596 27.9948 13.3C28.0028 13.172 28.0068 13.02 28.0068 12.844C28.0068 12.66 28.0028 12.504 27.9948 12.376C27.9868 12.096 27.9188 11.82 27.7908 11.548C27.6708 11.276 27.4868 11.052 27.2388 10.876C26.9988 10.7 26.6868 10.612 26.3028 10.612C25.8948 10.612 25.5708 10.704 25.3308 10.888C25.0908 11.064 24.9188 11.3 24.8148 11.596C24.7108 11.884 24.6508 12.196 24.6348 12.532C24.6268 12.764 24.6268 12.996 24.6348 13.228C24.6508 13.564 24.7108 13.88 24.8148 14.176C24.9188 14.464 25.0908 14.7 25.3308 14.884C25.5708 15.06 25.8948 15.148 26.3028 15.148ZM31.1835 16C31.1035 16 31.0355 15.976 30.9795 15.928C30.9315 15.872 30.9075 15.804 30.9075 15.724V10.036C30.9075 9.956 30.9315 9.892 30.9795 9.844C31.0355 9.788 31.1035 9.76 31.1835 9.76H31.7595C31.8395 9.76 31.9035 9.788 31.9515 9.844C31.9995 9.892 32.0235 9.956 32.0235 10.036V15.724C32.0235 15.804 31.9995 15.872 31.9515 15.928C31.9035 15.976 31.8395 16 31.7595 16H31.1835ZM31.0875 8.596C31.0075 8.596 30.9395 8.572 30.8835 8.524C30.8355 8.468 30.8115 8.4 30.8115 8.32V7.672C30.8115 7.592 30.8355 7.528 30.8835 7.48C30.9395 7.424 31.0075 7.396 31.0875 7.396H31.8435C31.9235 7.396 31.9875 7.424 32.0355 7.48C32.0915 7.528 32.1195 7.592 32.1195 7.672V8.32C32.1195 8.4 32.0915 8.468 32.0355 8.524C31.9875 8.572 31.9235 8.596 31.8435 8.596H31.0875ZM34.207 16C34.127 16 34.059 15.976 34.003 15.928C33.955 15.872 33.931 15.804 33.931 15.724V10.036C33.931 9.956 33.955 9.892 34.003 9.844C34.059 9.788 34.127 9.76 34.207 9.76H34.771C34.851 9.76 34.915 9.788 34.963 9.844C35.019 9.892 35.047 9.956 35.047 10.036V10.564C35.255 10.292 35.515 10.072 35.827 9.904C36.147 9.728 36.555 9.64 37.051 9.64C37.571 9.64 38.011 9.756 38.371 9.988C38.739 10.212 39.015 10.528 39.199 10.936C39.383 11.336 39.475 11.804 39.475 12.34V15.724C39.475 15.804 39.451 15.872 39.403 15.928C39.355 15.976 39.291 16 39.211 16H38.611C38.531 16 38.463 15.976 38.407 15.928C38.359 15.872 38.335 15.804 38.335 15.724V12.4C38.335 11.84 38.199 11.404 37.927 11.092C37.655 10.772 37.255 10.612 36.727 10.612C36.231 10.612 35.831 10.772 35.527 11.092C35.231 11.404 35.083 11.84 35.083 12.4V15.724C35.083 15.804 35.055 15.872 34.999 15.928C34.951 15.976 34.887 16 34.807 16H34.207ZM43.7643 18.64C43.2203 18.64 42.7723 18.568 42.4203 18.424C42.0763 18.28 41.8043 18.104 41.6043 17.896C41.4123 17.696 41.2723 17.492 41.1843 17.284C41.1043 17.084 41.0603 16.924 41.0523 16.804C41.0443 16.724 41.0683 16.656 41.1243 16.6C41.1883 16.544 41.2563 16.516 41.3283 16.516H41.9043C41.9763 16.516 42.0363 16.532 42.0843 16.564C42.1323 16.596 42.1723 16.664 42.2043 16.768C42.2523 16.888 42.3243 17.02 42.4203 17.164C42.5163 17.316 42.6643 17.444 42.8643 17.548C43.0643 17.66 43.3443 17.716 43.7043 17.716C44.0803 17.716 44.3963 17.664 44.6523 17.56C44.9083 17.464 45.1003 17.288 45.2283 17.032C45.3643 16.784 45.4323 16.44 45.4323 16V15.184C45.2403 15.432 44.9883 15.64 44.6763 15.808C44.3643 15.968 43.9723 16.048 43.5003 16.048C43.0523 16.048 42.6683 15.972 42.3483 15.82C42.0283 15.66 41.7643 15.448 41.5563 15.184C41.3563 14.912 41.2043 14.604 41.1003 14.26C41.0043 13.916 40.9483 13.556 40.9323 13.18C40.9243 12.956 40.9243 12.736 40.9323 12.52C40.9483 12.144 41.0043 11.784 41.1003 11.44C41.2043 11.096 41.3563 10.788 41.5563 10.516C41.7643 10.244 42.0283 10.032 42.3483 9.88C42.6683 9.72 43.0523 9.64 43.5003 9.64C43.9803 9.64 44.3763 9.732 44.6883 9.916C45.0083 10.092 45.2683 10.308 45.4683 10.564V10.048C45.4683 9.968 45.4923 9.9 45.5403 9.844C45.5963 9.788 45.6643 9.76 45.7443 9.76H46.2963C46.3763 9.76 46.4443 9.788 46.5003 9.844C46.5563 9.9 46.5843 9.968 46.5843 10.048V15.868C46.5843 16.404 46.4923 16.88 46.3083 17.296C46.1323 17.712 45.8363 18.04 45.4203 18.28C45.0123 18.52 44.4603 18.64 43.7643 18.64ZM43.7403 15.088C44.1403 15.088 44.4603 14.996 44.7003 14.812C44.9483 14.628 45.1283 14.396 45.2403 14.116C45.3603 13.836 45.4243 13.552 45.4323 13.264C45.4403 13.152 45.4443 13.016 45.4443 12.856C45.4443 12.688 45.4403 12.548 45.4323 12.436C45.4243 12.148 45.3603 11.864 45.2403 11.584C45.1283 11.304 44.9483 11.072 44.7003 10.888C44.4603 10.704 44.1403 10.612 43.7403 10.612C43.3403 10.612 43.0203 10.704 42.7803 10.888C42.5403 11.064 42.3683 11.3 42.2643 11.596C42.1603 11.884 42.1003 12.196 42.0843 12.532C42.0763 12.74 42.0763 12.952 42.0843 13.168C42.1003 13.504 42.1603 13.82 42.2643 14.116C42.3683 14.404 42.5403 14.64 42.7803 14.824C43.0203 15 43.3403 15.088 43.7403 15.088Z" fill="#FD5B71"/>
</svg>
