<svg width="97" height="24" viewBox="0 0 97 24" fill="none" xmlns="http://www.w3.org/2000/svg">
<rect width="97" height="24" rx="6" fill="#F5EEFC"/>
<path d="M9.32 16C9.232 16 9.164 15.976 9.116 15.928C9.068 15.872 9.044 15.804 9.044 15.724V7.888C9.044 7.8 9.068 7.732 9.116 7.684C9.164 7.628 9.232 7.6 9.32 7.6H12.248C13.152 7.6 13.868 7.812 14.396 8.236C14.924 8.66 15.188 9.288 15.188 10.12C15.188 10.736 15.032 11.24 14.72 11.632C14.416 12.016 14 12.284 13.472 12.436L15.32 15.628C15.344 15.676 15.356 15.72 15.356 15.76C15.356 15.824 15.328 15.88 15.272 15.928C15.224 15.976 15.168 16 15.104 16H14.528C14.392 16 14.292 15.964 14.228 15.892C14.164 15.82 14.108 15.748 14.06 15.676L12.32 12.628H10.22V15.724C10.22 15.804 10.192 15.872 10.136 15.928C10.088 15.976 10.02 16 9.932 16H9.32ZM10.22 11.608H12.2C12.8 11.608 13.248 11.484 13.544 11.236C13.84 10.98 13.988 10.604 13.988 10.108C13.988 9.62 13.84 9.248 13.544 8.992C13.256 8.736 12.808 8.608 12.2 8.608H10.22V11.608ZM18.4913 16.12C18.0913 16.12 17.7273 16.04 17.3993 15.88C17.0713 15.72 16.8073 15.504 16.6073 15.232C16.4073 14.96 16.3073 14.652 16.3073 14.308C16.3073 13.756 16.5313 13.316 16.9793 12.988C17.4273 12.66 18.0113 12.444 18.7313 12.34L20.5193 12.088V11.74C20.5193 11.356 20.4073 11.056 20.1833 10.84C19.9673 10.624 19.6113 10.516 19.1153 10.516C18.7553 10.516 18.4633 10.588 18.2393 10.732C18.0233 10.876 17.8713 11.06 17.7833 11.284C17.7353 11.404 17.6513 11.464 17.5313 11.464H16.9913C16.9033 11.464 16.8353 11.44 16.7873 11.392C16.7473 11.336 16.7273 11.272 16.7273 11.2C16.7273 11.08 16.7713 10.932 16.8593 10.756C16.9553 10.58 17.0993 10.408 17.2913 10.24C17.4833 10.072 17.7273 9.932 18.0233 9.82C18.3273 9.7 18.6953 9.64 19.1273 9.64C19.6073 9.64 20.0113 9.704 20.3393 9.832C20.6673 9.952 20.9233 10.116 21.1073 10.324C21.2993 10.532 21.4353 10.768 21.5153 11.032C21.6033 11.296 21.6473 11.564 21.6473 11.836V15.724C21.6473 15.804 21.6193 15.872 21.5633 15.928C21.5153 15.976 21.4513 16 21.3713 16H20.8193C20.7313 16 20.6633 15.976 20.6153 15.928C20.5673 15.872 20.5433 15.804 20.5433 15.724V15.208C20.4393 15.352 20.2993 15.496 20.1233 15.64C19.9473 15.776 19.7273 15.892 19.4633 15.988C19.1993 16.076 18.8753 16.12 18.4913 16.12ZM18.7433 15.22C19.0713 15.22 19.3713 15.152 19.6433 15.016C19.9153 14.872 20.1273 14.652 20.2793 14.356C20.4393 14.06 20.5193 13.688 20.5193 13.24V12.904L19.1273 13.108C18.5593 13.188 18.1313 13.324 17.8433 13.516C17.5553 13.7 17.4113 13.936 17.4113 14.224C17.4113 14.448 17.4753 14.636 17.6033 14.788C17.7393 14.932 17.9073 15.04 18.1073 15.112C18.3153 15.184 18.5273 15.22 18.7433 15.22ZM25.5324 16.12C25.0844 16.12 24.7004 16.064 24.3804 15.952C24.0604 15.84 23.8004 15.704 23.6004 15.544C23.4004 15.384 23.2484 15.224 23.1444 15.064C23.0484 14.904 22.9964 14.776 22.9884 14.68C22.9804 14.592 23.0084 14.524 23.0724 14.476C23.1364 14.428 23.2004 14.404 23.2644 14.404H23.7924C23.8404 14.404 23.8764 14.412 23.9004 14.428C23.9324 14.436 23.9724 14.468 24.0204 14.524C24.1244 14.636 24.2404 14.748 24.3684 14.86C24.4964 14.972 24.6524 15.064 24.8364 15.136C25.0284 15.208 25.2644 15.244 25.5444 15.244C25.9524 15.244 26.2884 15.168 26.5524 15.016C26.8164 14.856 26.9484 14.624 26.9484 14.32C26.9484 14.12 26.8924 13.96 26.7804 13.84C26.6764 13.72 26.4844 13.612 26.2044 13.516C25.9324 13.42 25.5564 13.32 25.0764 13.216C24.5964 13.104 24.2164 12.968 23.9364 12.808C23.6564 12.64 23.4564 12.444 23.3364 12.22C23.2164 11.988 23.1564 11.728 23.1564 11.44C23.1564 11.144 23.2444 10.86 23.4204 10.588C23.5964 10.308 23.8524 10.08 24.1884 9.904C24.5324 9.728 24.9604 9.64 25.4724 9.64C25.8884 9.64 26.2444 9.692 26.5404 9.796C26.8364 9.9 27.0804 10.032 27.2724 10.192C27.4644 10.344 27.6084 10.496 27.7044 10.648C27.8004 10.8 27.8524 10.928 27.8604 11.032C27.8684 11.112 27.8444 11.18 27.7884 11.236C27.7324 11.284 27.6684 11.308 27.5964 11.308H27.0924C27.0364 11.308 26.9884 11.296 26.9484 11.272C26.9164 11.248 26.8844 11.22 26.8524 11.188C26.7724 11.084 26.6764 10.98 26.5644 10.876C26.4604 10.772 26.3204 10.688 26.1444 10.624C25.9764 10.552 25.7524 10.516 25.4724 10.516C25.0724 10.516 24.7724 10.6 24.5724 10.768C24.3724 10.936 24.2724 11.148 24.2724 11.404C24.2724 11.556 24.3164 11.692 24.4044 11.812C24.4924 11.932 24.6604 12.04 24.9084 12.136C25.1564 12.232 25.5244 12.336 26.0124 12.448C26.5404 12.552 26.9564 12.692 27.2604 12.868C27.5644 13.044 27.7804 13.248 27.9084 13.48C28.0364 13.712 28.1004 13.98 28.1004 14.284C28.1004 14.62 28.0004 14.928 27.8004 15.208C27.6084 15.488 27.3204 15.712 26.9364 15.88C26.5604 16.04 26.0924 16.12 25.5324 16.12ZM29.7656 16C29.6856 16 29.6176 15.976 29.5616 15.928C29.5136 15.872 29.4896 15.804 29.4896 15.724V10.036C29.4896 9.956 29.5136 9.892 29.5616 9.844C29.6176 9.788 29.6856 9.76 29.7656 9.76H30.3416C30.4216 9.76 30.4856 9.788 30.5336 9.844C30.5816 9.892 30.6056 9.956 30.6056 10.036V15.724C30.6056 15.804 30.5816 15.872 30.5336 15.928C30.4856 15.976 30.4216 16 30.3416 16H29.7656ZM29.6696 8.596C29.5896 8.596 29.5216 8.572 29.4656 8.524C29.4176 8.468 29.3936 8.4 29.3936 8.32V7.672C29.3936 7.592 29.4176 7.528 29.4656 7.48C29.5216 7.424 29.5896 7.396 29.6696 7.396H30.4256C30.5056 7.396 30.5696 7.424 30.6176 7.48C30.6736 7.528 30.7016 7.592 30.7016 7.672V8.32C30.7016 8.4 30.6736 8.468 30.6176 8.524C30.5696 8.572 30.5056 8.596 30.4256 8.596H29.6696ZM34.9753 16.12C34.3673 16.12 33.8593 16.004 33.4513 15.772C33.0433 15.54 32.7313 15.22 32.5153 14.812C32.2993 14.396 32.1793 13.924 32.1553 13.396C32.1473 13.26 32.1433 13.088 32.1433 12.88C32.1433 12.664 32.1473 12.492 32.1553 12.364C32.1793 11.828 32.2993 11.356 32.5153 10.948C32.7393 10.54 33.0553 10.22 33.4633 9.988C33.8713 9.756 34.3753 9.64 34.9753 9.64C35.5753 9.64 36.0793 9.756 36.4873 9.988C36.8953 10.22 37.2073 10.54 37.4233 10.948C37.6473 11.356 37.7713 11.828 37.7953 12.364C37.8033 12.492 37.8073 12.664 37.8073 12.88C37.8073 13.088 37.8033 13.26 37.7953 13.396C37.7713 13.924 37.6513 14.396 37.4353 14.812C37.2193 15.22 36.9073 15.54 36.4993 15.772C36.0913 16.004 35.5833 16.12 34.9753 16.12ZM34.9753 15.196C35.4713 15.196 35.8673 15.04 36.1633 14.728C36.4593 14.408 36.6193 13.944 36.6433 13.336C36.6513 13.216 36.6553 13.064 36.6553 12.88C36.6553 12.696 36.6513 12.544 36.6433 12.424C36.6193 11.816 36.4593 11.356 36.1633 11.044C35.8673 10.724 35.4713 10.564 34.9753 10.564C34.4793 10.564 34.0793 10.724 33.7753 11.044C33.4793 11.356 33.3233 11.816 33.3073 12.424C33.2993 12.544 33.2952 12.696 33.2952 12.88C33.2952 13.064 33.2993 13.216 33.3073 13.336C33.3233 13.944 33.4793 14.408 33.7753 14.728C34.0793 15.04 34.4793 15.196 34.9753 15.196ZM39.5859 16C39.5059 16 39.4379 15.976 39.3819 15.928C39.3339 15.872 39.3099 15.804 39.3099 15.724V10.036C39.3099 9.956 39.3339 9.892 39.3819 9.844C39.4379 9.788 39.5059 9.76 39.5859 9.76H40.1499C40.2299 9.76 40.2939 9.788 40.3419 9.844C40.3979 9.892 40.4259 9.956 40.4259 10.036V10.564C40.6339 10.292 40.8939 10.072 41.2059 9.904C41.5259 9.728 41.9339 9.64 42.4299 9.64C42.9499 9.64 43.3899 9.756 43.7499 9.988C44.1179 10.212 44.3939 10.528 44.5779 10.936C44.7619 11.336 44.8539 11.804 44.8539 12.34V15.724C44.8539 15.804 44.8299 15.872 44.7819 15.928C44.7339 15.976 44.6699 16 44.5899 16H43.9899C43.9099 16 43.8419 15.976 43.7859 15.928C43.7379 15.872 43.7139 15.804 43.7139 15.724V12.4C43.7139 11.84 43.5779 11.404 43.3059 11.092C43.0339 10.772 42.6339 10.612 42.1059 10.612C41.6099 10.612 41.2099 10.772 40.9059 11.092C40.6099 11.404 40.4619 11.84 40.4619 12.4V15.724C40.4619 15.804 40.4339 15.872 40.3779 15.928C40.3299 15.976 40.2659 16 40.1859 16H39.5859ZM49.9606 16C49.8726 16 49.8046 15.976 49.7566 15.928C49.7086 15.872 49.6846 15.804 49.6846 15.724V7.888C49.6846 7.8 49.7086 7.732 49.7566 7.684C49.8046 7.628 49.8726 7.6 49.9606 7.6H53.0086C53.6006 7.6 54.1126 7.696 54.5446 7.888C54.9846 8.08 55.3246 8.368 55.5646 8.752C55.8046 9.128 55.9246 9.6 55.9246 10.168C55.9246 10.736 55.8046 11.208 55.5646 11.584C55.3246 11.96 54.9846 12.244 54.5446 12.436C54.1126 12.628 53.6006 12.724 53.0086 12.724H50.8846V15.724C50.8846 15.804 50.8566 15.872 50.8006 15.928C50.7526 15.976 50.6846 16 50.5966 16H49.9606ZM50.8726 11.716H52.9486C53.5406 11.716 53.9846 11.584 54.2806 11.32C54.5766 11.056 54.7246 10.672 54.7246 10.168C54.7246 9.672 54.5806 9.288 54.2926 9.016C54.0046 8.744 53.5566 8.608 52.9486 8.608H50.8726V11.716ZM57.5038 16C57.4238 16 57.3558 15.976 57.2998 15.928C57.2518 15.872 57.2278 15.804 57.2278 15.724V10.048C57.2278 9.968 57.2518 9.9 57.2998 9.844C57.3558 9.788 57.4238 9.76 57.5038 9.76H58.0558C58.1358 9.76 58.2038 9.788 58.2598 9.844C58.3158 9.9 58.3438 9.968 58.3438 10.048V10.576C58.5038 10.304 58.7238 10.1 59.0038 9.964C59.2838 9.828 59.6198 9.76 60.0118 9.76H60.4918C60.5718 9.76 60.6358 9.788 60.6838 9.844C60.7318 9.892 60.7558 9.956 60.7558 10.036V10.528C60.7558 10.608 60.7318 10.672 60.6838 10.72C60.6358 10.768 60.5718 10.792 60.4918 10.792H59.7718C59.3398 10.792 58.9998 10.92 58.7518 11.176C58.5038 11.424 58.3798 11.764 58.3798 12.196V15.724C58.3798 15.804 58.3518 15.872 58.2958 15.928C58.2398 15.976 58.1718 16 58.0918 16H57.5038ZM64.2253 16.12C63.6173 16.12 63.1093 16.004 62.7013 15.772C62.2933 15.54 61.9813 15.22 61.7653 14.812C61.5493 14.396 61.4293 13.924 61.4053 13.396C61.3973 13.26 61.3933 13.088 61.3933 12.88C61.3933 12.664 61.3973 12.492 61.4053 12.364C61.4293 11.828 61.5493 11.356 61.7653 10.948C61.9893 10.54 62.3053 10.22 62.7133 9.988C63.1213 9.756 63.6253 9.64 64.2253 9.64C64.8253 9.64 65.3293 9.756 65.7373 9.988C66.1453 10.22 66.4573 10.54 66.6733 10.948C66.8973 11.356 67.0213 11.828 67.0453 12.364C67.0533 12.492 67.0573 12.664 67.0573 12.88C67.0573 13.088 67.0533 13.26 67.0453 13.396C67.0213 13.924 66.9013 14.396 66.6853 14.812C66.4693 15.22 66.1573 15.54 65.7493 15.772C65.3413 16.004 64.8333 16.12 64.2253 16.12ZM64.2253 15.196C64.7213 15.196 65.1173 15.04 65.4133 14.728C65.7093 14.408 65.8693 13.944 65.8933 13.336C65.9013 13.216 65.9053 13.064 65.9053 12.88C65.9053 12.696 65.9013 12.544 65.8933 12.424C65.8693 11.816 65.7093 11.356 65.4133 11.044C65.1173 10.724 64.7213 10.564 64.2253 10.564C63.7293 10.564 63.3293 10.724 63.0253 11.044C62.7293 11.356 62.5733 11.816 62.5573 12.424C62.5493 12.544 62.5452 12.696 62.5452 12.88C62.5452 13.064 62.5493 13.216 62.5573 13.336C62.5733 13.944 62.7293 14.408 63.0253 14.728C63.3293 15.04 63.7293 15.196 64.2253 15.196ZM67.5399 18.28C67.4599 18.28 67.3959 18.252 67.3479 18.196C67.2919 18.148 67.2639 18.084 67.2639 18.004V17.596C67.2639 17.516 67.2919 17.448 67.3479 17.392C67.3959 17.344 67.4599 17.32 67.5399 17.32H67.7079C67.9959 17.32 68.2079 17.264 68.3439 17.152C68.4799 17.048 68.5679 16.908 68.6079 16.732C68.6559 16.556 68.6799 16.356 68.6799 16.132V10.036C68.6799 9.956 68.7039 9.892 68.7519 9.844C68.8079 9.788 68.8759 9.76 68.9559 9.76H69.5439C69.6239 9.76 69.6879 9.788 69.7359 9.844C69.7919 9.892 69.8199 9.956 69.8199 10.036V16.144C69.8199 16.568 69.7519 16.94 69.6159 17.26C69.4879 17.58 69.2759 17.828 68.9799 18.004C68.6839 18.188 68.2799 18.28 67.7679 18.28H67.5399ZM68.8599 8.596C68.7799 8.596 68.7119 8.572 68.6559 8.524C68.6079 8.468 68.5839 8.4 68.5839 8.32V7.672C68.5839 7.592 68.6079 7.528 68.6559 7.48C68.7119 7.424 68.7799 7.396 68.8599 7.396H69.6279C69.7079 7.396 69.7759 7.424 69.8319 7.48C69.8879 7.528 69.9159 7.592 69.9159 7.672V8.32C69.9159 8.4 69.8879 8.468 69.8319 8.524C69.7759 8.572 69.7079 8.596 69.6279 8.596H68.8599ZM74.1142 16.12C73.2902 16.12 72.6342 15.868 72.1462 15.364C71.6582 14.852 71.3902 14.156 71.3422 13.276C71.3342 13.172 71.3302 13.04 71.3302 12.88C71.3302 12.712 71.3342 12.576 71.3422 12.472C71.3742 11.904 71.5062 11.408 71.7382 10.984C71.9702 10.552 72.2862 10.22 72.6862 9.988C73.0942 9.756 73.5702 9.64 74.1142 9.64C74.7222 9.64 75.2302 9.768 75.6382 10.024C76.0542 10.28 76.3702 10.644 76.5862 11.116C76.8022 11.588 76.9102 12.14 76.9102 12.772V12.976C76.9102 13.064 76.8822 13.132 76.8262 13.18C76.7782 13.228 76.7142 13.252 76.6342 13.252H72.4822C72.4822 13.26 72.4822 13.276 72.4822 13.3C72.4822 13.324 72.4822 13.344 72.4822 13.36C72.4982 13.688 72.5702 13.996 72.6982 14.284C72.8262 14.564 73.0102 14.792 73.2502 14.968C73.4902 15.144 73.7782 15.232 74.1142 15.232C74.4022 15.232 74.6422 15.188 74.8342 15.1C75.0262 15.012 75.1822 14.916 75.3022 14.812C75.4222 14.7 75.5022 14.616 75.5422 14.56C75.6142 14.456 75.6702 14.396 75.7102 14.38C75.7502 14.356 75.8142 14.344 75.9022 14.344H76.4782C76.5582 14.344 76.6222 14.368 76.6702 14.416C76.7262 14.456 76.7502 14.516 76.7422 14.596C76.7342 14.716 76.6702 14.864 76.5502 15.04C76.4302 15.208 76.2582 15.376 76.0342 15.544C75.8102 15.712 75.5382 15.852 75.2182 15.964C74.8982 16.068 74.5302 16.12 74.1142 16.12ZM72.4822 12.424H75.7702V12.388C75.7702 12.028 75.7022 11.708 75.5662 11.428C75.4382 11.148 75.2502 10.928 75.0022 10.768C74.7542 10.6 74.4582 10.516 74.1142 10.516C73.7702 10.516 73.4742 10.6 73.2262 10.768C72.9862 10.928 72.8022 11.148 72.6742 11.428C72.5462 11.708 72.4822 12.028 72.4822 12.388V12.424ZM80.865 16.12C80.297 16.12 79.805 16.012 79.389 15.796C78.981 15.572 78.665 15.256 78.441 14.848C78.217 14.432 78.097 13.936 78.081 13.36C78.073 13.24 78.069 13.08 78.069 12.88C78.069 12.68 78.073 12.52 78.081 12.4C78.097 11.824 78.217 11.332 78.441 10.924C78.665 10.508 78.981 10.192 79.389 9.976C79.805 9.752 80.297 9.64 80.865 9.64C81.329 9.64 81.725 9.704 82.053 9.832C82.389 9.96 82.665 10.124 82.881 10.324C83.097 10.524 83.257 10.74 83.361 10.972C83.473 11.204 83.533 11.424 83.541 11.632C83.549 11.712 83.525 11.776 83.469 11.824C83.413 11.872 83.345 11.896 83.265 11.896H82.689C82.609 11.896 82.549 11.88 82.509 11.848C82.469 11.808 82.429 11.744 82.389 11.656C82.245 11.264 82.049 10.988 81.801 10.828C81.553 10.668 81.245 10.588 80.877 10.588C80.397 10.588 80.005 10.736 79.701 11.032C79.405 11.328 79.245 11.804 79.221 12.46C79.213 12.748 79.213 13.028 79.221 13.3C79.245 13.964 79.405 14.444 79.701 14.74C80.005 15.028 80.397 15.172 80.877 15.172C81.245 15.172 81.553 15.092 81.801 14.932C82.049 14.772 82.245 14.496 82.389 14.104C82.429 14.016 82.469 13.956 82.509 13.924C82.549 13.884 82.609 13.864 82.689 13.864H83.265C83.345 13.864 83.413 13.888 83.469 13.936C83.525 13.984 83.549 14.048 83.541 14.128C83.533 14.296 83.497 14.468 83.433 14.644C83.369 14.82 83.265 15 83.121 15.184C82.985 15.36 82.813 15.52 82.605 15.664C82.397 15.8 82.145 15.912 81.849 16C81.561 16.08 81.233 16.12 80.865 16.12ZM87.4021 16C86.9541 16 86.5901 15.916 86.3101 15.748C86.0301 15.572 85.8261 15.328 85.6981 15.016C85.5701 14.696 85.5061 14.32 85.5061 13.888V10.72H84.5701C84.4901 10.72 84.4221 10.696 84.3661 10.648C84.3181 10.592 84.2941 10.524 84.2941 10.444V10.036C84.2941 9.956 84.3181 9.892 84.3661 9.844C84.4221 9.788 84.4901 9.76 84.5701 9.76H85.5061V7.756C85.5061 7.676 85.5301 7.612 85.5781 7.564C85.6341 7.508 85.7021 7.48 85.7821 7.48H86.3461C86.4261 7.48 86.4901 7.508 86.5381 7.564C86.5941 7.612 86.6221 7.676 86.6221 7.756V9.76H88.1101C88.1901 9.76 88.2541 9.788 88.3021 9.844C88.3581 9.892 88.3861 9.956 88.3861 10.036V10.444C88.3861 10.524 88.3581 10.592 88.3021 10.648C88.2541 10.696 88.1901 10.72 88.1101 10.72H86.6221V13.804C86.6221 14.18 86.6861 14.476 86.8141 14.692C86.9421 14.908 87.1701 15.016 87.4981 15.016H88.2301C88.3101 15.016 88.3741 15.044 88.4221 15.1C88.4781 15.148 88.5061 15.212 88.5061 15.292V15.724C88.5061 15.804 88.4781 15.872 88.4221 15.928C88.3741 15.976 88.3101 16 88.2301 16H87.4021Z" fill="#9B51E0"/>
</svg>
